 General
      Complete name : Strangers.on.a.Train.1951.DVDRip.H264.AAC.Gopo.mp4
      Format : MPEG-4
      Format profile : Base Media
      Codec ID : isom
      File size : 1.10 GiB
      Duration : 1h 36mn
      Overall bit rate : 1 628 Kbps
      Encoded date : UTC 2010-03-18 20:59:21
      Tagged date : UTC 2010-03-18 20:59:21
   Video #1
      ID : 1
      Format : AVC
      Format/Info : Advanced Video Codec
      Format profile : High@L4.1
      Format settings, CABAC : Yes
      Format settings, ReFrames : 6 frames
      Codec ID : avc1
      Codec ID/Info : Advanced Video Coding
      Duration : 1h 36mn
      Bit rate mode : Variable
      Bit rate : 1 442 Kbps
      Maximum bit rate : 5 616 Kbps
      Width : 720 pixels
      Height : 544 pixels
      Display aspect ratio : 4:3
      Frame rate mode : Constant
      Frame rate : 25.000 fps
      Resolution : 24 bits
      Colorimetry : 4:2:0
      Scan type : Progressive
      Bits/(Pixel*Frame) : 0.147
      Stream size : 997 MiB (89%)
      Writing library : x264 core 84 r1416 fcf70c2
      Encoding settings : cabac=1 / ref=6 / deblock=1:-3:-1 / analyse=0x3:0x133 / me=umh / subme=7 / psy=1 / psy_rd=1.0:0.1 / mixed_ref=1 / me_range=32 / chroma_me=1 / trellis=2 / 8x8dct=1 / cqm=0 / deadzone=21,11 / fast_pskip=0 / chroma_qp_offset=-3 / threads=2 / sliced_threads=0 / nr=0 / decimate=1 / mbaff=0 / constrained_intra=0 / bframes=6 / b_pyramid=2 / b_adapt=2 / b_bias=0 / direct=1 / wpredb=1 / wpredp=2 / keyint=250 / keyint_min=25 / scenecut=40 / intra_refresh=0 / rc_lookahead=40 / rc=2pass / mbtree=1 / bitrate=1442 / ratetol=1.0 / qcomp=0.60 / qpmin=10 / qpmax=51 / qpstep=4 / cplxblur=20.0 / qblur=0.5 / vbv_maxrate=40000 / vbv_bufsize=40000 / ip_ratio=1.40 / aq=1:1.00
      Encoded date : UTC 2010-03-18 11:38:05
      Tagged date : UTC 2010-03-18 21:02:00
   Audio #2
      ID : 2
      Format : AAC
      Format/Info : Advanced Audio Codec
      Format version : Version 4
      Format profile : LC
      Format settings, SBR : No
      Format settings, PS : Yes
      Codec ID : 40
      Duration : 1h 36mn
      Bit rate mode : Variable
      Bit rate : 182 Kbps
      Maximum bit rate : 200 Kbps
      Channel(s) : 2 channels
      Channel positions : Front: L R
      Sampling rate : 48.0 KHz
      Resolution : 16 bits
      Stream size : 126 MiB (11%)
      Encoded date : UTC 2010-03-18 21:01:46
      Tagged date : UTC 2010-03-18 21:02:00
	Sample : YES
	Subtitle : English,Romanian

Includes one extra feauture plus theatrical trailer

PLOT

A psychotic socialite confronts a pro tennis star with a theory on how two complete strangers can get away with murder...a theory that he plans to implement
Director: Alfred Hitchcock
CASTING 
     
	Farley Granger	... 	Guy Haines
	Ruth Roman	... 	Anne Morton
	Robert Walker	... 	Bruno Anthony
	Leo G. Carroll	... 	Sen. Morton
	Patricia Hitchcock	... 	Barbara Morton
	Kasey Rogers	... 	Miriam Joyce Haines (as Laura Elliott)
	Marion Lorne	... 	Mrs. Anthony
	Jonathan Hale	... 	Mr. Anthony
	Howard St. John	... 	Police Capt. Turley
	John Brown	... 	Prof. Collins
	Norma Varden	... 	Mrs. Cunningham
	Robert Gist	... 	Leslie Hennessy

SOURCE: Hitchcock.s.Strangers.on.a.Train.Original.Version.Ro.Retail.DVDR.iNT

Notes: For best performance I suggest you to use KMPlayer(find it with google) for playback
These movies were made especially for PC and they don't play on a PS3.If you want to re-encode for PS3 or test for other devices be my guests.